
<svg width="512" height="512" viewBox="0 0 512 512" xmlns="http://www.w3.org/2000/svg">
  <defs>
    <linearGradient id="grad1" x1="0%" y1="0%" x2="100%" y2="100%">
      <stop offset="0%" style="stop-color:#2563eb;stop-opacity:1" />
      <stop offset="100%" style="stop-color:#1d4ed8;stop-opacity:1" />
    </linearGradient>
  </defs>
  
  <!-- 背景圆角矩形 -->
  <rect width="512" height="512" rx="80" ry="80" fill="url(#grad1)"/>
  
  <!-- 南京城墙图案 -->
  <g fill="none" stroke="#ffffff" stroke-width="8">
    <path d="M100 350 L100 280 L130 250 L160 280 L160 250 L190 220 L220 250 L220 280 L250 250 L280 280 L280 250 L310 220 L340 250 L340 280 L370 250 L400 280 L400 350"/>
  </g>
  
  <!-- 旅行路线 -->
  <g fill="none" stroke="#fbbf24" stroke-width="4" stroke-dasharray="10,5">
    <path d="M150 180 Q250 120 350 180 Q320 200 280 190 Q250 200 220 190"/>
  </g>
  
  <!-- 位置标记 -->
  <circle cx="150" cy="180" r="12" fill="#ef4444"/>
  <circle cx="350" cy="180" r="12" fill="#10b981"/>
  
  <!-- 文字 -->
  <text x="256" y="420" font-family="Arial, sans-serif" font-size="48" font-weight="bold" text-anchor="middle" fill="#ffffff">南京</text>
  <text x="256" y="450" font-family="Arial, sans-serif" font-size="24" font-weight="bold" text-anchor="middle" fill="#ffffff">AI Travel</text>
</svg>
